#N canvas 0 23 1680 925 10;
#X floatatom 1249 154 5 0 0 0 - - -;
#X obj 60 518 catch~ \$0-input;
#X obj 61 553 env~ 2048;
#X obj 62 590 - 100;
#X obj 62 611 s inmeter;
#X obj 553 269 vu 15 120 empty empty -1 -8 0 10 -66577 -1 1 0;
#X obj 158 568 +~;
#X obj 158 600 clip~ -1 1;
#X obj 295 534 r delaylevel;
#X obj 401 540 r delaytime;
#X obj 482 537 r modfreq;
#X obj 552 583 *~;
#X obj 352 615 *~;
#X obj 286 642 +~;
#X obj 190 534 r~ \$0-feedback;
#X obj 473 611 *~;
#X obj 399 638 +~;
#X obj 542 652 r feedbacklevel;
#X obj 432 765 *~;
#X obj 426 811 s~ \$0-feedback;
#X obj 560 534 r modlevel;
#X text 1186 155 delaytime;
#X obj 1249 174 s delaytime;
#X obj 627 181 s modfreq;
#X obj 63 728 r inmeter;
#X obj 1326 426 r delaylevel;
#X obj 1418 428 r delaytime;
#X obj 1510 429 r modfreq;
#X obj 1465 498 phasor~;
#X obj 1549 513 *~;
#X obj 1354 515 *~;
#X obj 1252 551 +~;
#X obj 1470 541 *~;
#X obj 1396 568 +~;
#X obj 1593 430 r modlevel;
#X obj 1434 124 throw~ \$0-input;
#X text 1284 125 BPM;
#X obj 912 526 osc~ 1;
#X obj 967 663 +~;
#X obj 921 618 *~;
#X floatatom 1001 552 5 0 0 0 - - -;
#X floatatom 905 476 5 0 0 0 - - -;
#X obj 384 348 output~;
#X obj 470 583 phasor~ 1;
#X msg 727 184 1;
#X obj 354 154 bng 15 250 50 0 empty pdelay empty 17 7 0 10 -262144
-1 -1;
#X msg 815 177 0;
#X obj 1248 124 * 240;
#X obj 766 598 lop~ 2;
#X obj 948 586 lop~ 2;
#X obj 902 567 *~;
#X obj 1063 749 *~;
#X obj 1006 773 +~;
#X obj 271 740 throw~ opt;
#X obj 1236 593 throw~ opt;
#X obj 744 647 catch~ opt;
#X text 938 444 BPM=240 \, 4 beats per second;
#X obj 905 496 lop~ 2;
#X obj 757 804 delwrite~ \$0-dlone 3000;
#X obj 927 696 delread4~ \$0-dlone 1000;
#X obj 786 749 clip~ 0 0.9999;
#X floatatom 808 715 5 0 0 0 - - -;
#X obj 786 778 *~;
#X obj 920 727 lop~ 10000;
#X obj 920 748 hip~ 100;
#X obj 9 268 hsl 128 15 1 100 0 0 empty empty empty -2 -8 0 10 -262144
-1 -1 0 1;
#X text 148 267 flanger delay;
#X obj 258 423 s delaytime3;
#X obj 766 540 r delaytime3;
#X obj 907 444 * 4;
#X obj 17 83 vsl 15 128 0 2 0 0 empty empty empty 0 -9 0 10 -262144
-1 -1 6350 1;
#X obj 58 99 vsl 15 128 0 1 0 0 empty empty empty 0 -9 0 10 -262144
-1 -1 6350 1;
#X obj 104 118 vsl 15 128 0 5 0 0 empty empty empty 0 -9 0 10 -262144
-1 -1 0 1;
#X text 5 58 delaylevel;
#X text 35 78 feedbacklevel;
#X text 88 94 modlevel;
#X obj 723 214 s puredelay;
#X obj 814 212 s pure;
#X obj 760 106 r pure;
#X obj 606 45 r puredelay;
#X floatatom 177 126 5 0 0 0 - - -;
#X text 125 124 modfreq;
#X obj 10 40 hsl 128 15 0 5 0 1 empty dtime empty -2 -8 0 10 -262144
-1 -1 1600 1;
#X text 143 38 delaytime1;
#X obj 616 265 s delaylevel;
#X obj 701 264 s feedbacklevel;
#X obj 804 264 s modlevel;
#X obj 10 292 hsl 128 15 0 2 0 0 empty empty empty -2 -8 0 10 -262144
-1 -1 0 1;
#X text 147 291 flanger level;
#X obj 2 413 s flevel;
#X floatatom 767 571 5 0 0 0 - - -;
#X obj 10 320 hsl 128 15 0 1 0 0 empty empty empty -2 -8 0 10 -262144
-1 -1 0 1;
#X text 147 319 flanger feedback;
#X obj 1012 522 r fdepth;
#X obj 1095 701 r flevel;
#X floatatom 1095 722 5 0 0 0 - - -;
#X text 371 155 pure delay;
#X obj 12 348 hsl 128 15 0 2 0 0 empty empty empty -2 -8 0 10 -262144
-1 -1 0 1;
#X text 151 346 flanger depth;
#X obj 73 414 s fdepth;
#X obj 12 376 hsl 128 15 0 2 0 0 empty empty empty -2 -8 0 10 -262144
-1 -1 0 1;
#X text 152 373 modulation frequency;
#X obj 913 410 r modf;
#X obj 17 443 s modf;
#X obj 151 413 s ffb;
#X obj 816 678 r ffb;
#X msg 639 129 0.5;
#X obj 639 150 s reverb;
#X obj 712 12 r reverb;
#X obj 352 216 bng 15 250 50 0 empty fdelay empty 17 7 0 10 -262144
-1 -1;
#X msg 898 176 1;
#X msg 977 178 0;
#X obj 878 207 s pureflanger;
#X obj 970 205 s purelevel;
#X obj 773 47 r pureflanger;
#X obj 886 46 r purelevel;
#X obj 989 47 r puretime;
#X msg 1055 179 10;
#X obj 1055 200 s puretime;
#X obj 352 186 bng 15 250 50 0 empty dfb empty 17 7 0 10 -262144 -1
-1;
#X text 371 186 delay with feedback;
#X text 373 216 delay with flanger;
#X obj 734 164 s fb;
#X msg 734 143 0.5;
#X obj 703 41 r fb;
#X obj 352 246 bng 15 250 50 0 empty empty empty 17 7 0 10 -262144
-1 -1;
#X text 373 246 delay with flanger and feedback;
#X obj 381 108 cnv 30 100 30 empty empty Presets 20 12 0 14 -261682
-66577 0;
#X msg 852 127 0;
#X obj 852 148 s floff;
#X obj 798 13 r floff;
#X obj 214 467 cnv 15 100 30 empty empty delay1 20 12 0 14 -257985
-66577 0;
#X obj 784 428 cnv 30 100 30 empty empty flanger 20 12 0 14 -4032 -66577
0;
#X obj 1392 362 cnv 30 100 30 empty empty delay2 20 12 0 14 -260097
-66577 0;
#X obj 1435 75 inlet~;
#X obj 135 638 delwrite~ delay1 3000;
#X obj 131 732 delwrite~ delay2 3000;
#X obj 1378 604 delread4~ delay2 1500;
#X obj 402 670 delread4~ delay1 1000;
#X obj 1006 794 outlet~;
#X connect 0 0 22 0;
#X connect 1 0 2 0;
#X connect 1 0 6 0;
#X connect 1 0 13 0;
#X connect 1 0 31 0;
#X connect 2 0 3 0;
#X connect 3 0 4 0;
#X connect 6 0 7 0;
#X connect 7 0 135 0;
#X connect 8 0 12 0;
#X connect 9 0 11 0;
#X connect 9 0 16 0;
#X connect 10 0 43 0;
#X connect 11 0 15 1;
#X connect 12 0 13 1;
#X connect 13 0 53 0;
#X connect 13 0 136 0;
#X connect 14 0 6 1;
#X connect 15 0 16 1;
#X connect 16 0 138 0;
#X connect 17 0 18 1;
#X connect 18 0 19 0;
#X connect 20 0 11 1;
#X connect 24 0 5 0;
#X connect 25 0 30 0;
#X connect 26 0 29 0;
#X connect 26 0 33 0;
#X connect 27 0 28 0;
#X connect 28 0 32 0;
#X connect 29 0 32 1;
#X connect 30 0 31 1;
#X connect 31 0 54 0;
#X connect 32 0 33 1;
#X connect 33 0 137 0;
#X connect 34 0 29 1;
#X connect 37 0 50 1;
#X connect 38 0 59 0;
#X connect 39 0 38 1;
#X connect 40 0 49 0;
#X connect 41 0 57 0;
#X connect 43 0 15 0;
#X connect 44 0 76 0;
#X connect 45 0 44 0;
#X connect 45 0 46 0;
#X connect 45 0 106 0;
#X connect 45 0 128 0;
#X connect 46 0 77 0;
#X connect 47 0 0 0;
#X connect 48 0 38 0;
#X connect 48 0 50 0;
#X connect 49 0 39 1;
#X connect 50 0 39 0;
#X connect 51 0 52 1;
#X connect 52 0 42 0;
#X connect 52 0 42 1;
#X connect 52 0 139 0;
#X connect 55 0 52 0;
#X connect 55 0 58 0;
#X connect 57 0 37 0;
#X connect 59 0 51 0;
#X connect 59 0 63 0;
#X connect 60 0 62 1;
#X connect 61 0 60 0;
#X connect 62 0 58 0;
#X connect 63 0 64 0;
#X connect 64 0 62 0;
#X connect 65 0 67 0;
#X connect 68 0 90 0;
#X connect 69 0 41 0;
#X connect 70 0 84 0;
#X connect 71 0 85 0;
#X connect 72 0 86 0;
#X connect 78 0 71 0;
#X connect 78 0 72 0;
#X connect 79 0 70 0;
#X connect 80 0 23 0;
#X connect 82 0 47 0;
#X connect 87 0 89 0;
#X connect 90 0 48 0;
#X connect 91 0 104 0;
#X connect 93 0 40 0;
#X connect 94 0 95 0;
#X connect 95 0 51 1;
#X connect 97 0 99 0;
#X connect 100 0 103 0;
#X connect 102 0 69 0;
#X connect 105 0 61 0;
#X connect 106 0 107 0;
#X connect 108 0 82 0;
#X connect 109 0 110 0;
#X connect 109 0 111 0;
#X connect 109 0 117 0;
#X connect 109 0 44 0;
#X connect 109 0 46 0;
#X connect 110 0 112 0;
#X connect 111 0 113 0;
#X connect 114 0 87 0;
#X connect 114 0 97 0;
#X connect 114 0 100 0;
#X connect 115 0 91 0;
#X connect 116 0 65 0;
#X connect 117 0 118 0;
#X connect 119 0 123 0;
#X connect 119 0 44 0;
#X connect 119 0 128 0;
#X connect 119 0 106 0;
#X connect 123 0 122 0;
#X connect 124 0 71 0;
#X connect 125 0 44 0;
#X connect 125 0 110 0;
#X connect 125 0 111 0;
#X connect 125 0 117 0;
#X connect 125 0 123 0;
#X connect 125 0 106 0;
#X connect 128 0 129 0;
#X connect 130 0 65 0;
#X connect 130 0 100 0;
#X connect 130 0 97 0;
#X connect 130 0 91 0;
#X connect 130 0 87 0;
#X connect 134 0 35 0;
#X connect 137 0 30 1;
#X connect 138 0 18 0;
#X connect 138 0 12 1;
#X coords 0 -1 1 1 600 400 2 0 0;
