#N canvas 408 268 1026 698 10;
#X obj 148 85 inlet;
#X obj 144 158 unpack f f s;
#X obj 154 235 * -1;
#X obj 125 300 t b b f;
#X obj 96 382 samplerate~;
#X obj 108 439 * 4;
#X floatatom 103 475 5 0 0 0 - - -;
#X obj 90 525 pack f f;
#X floatatom 165 471 5 0 0 0 - - -;
#X msg 142 338 2;
#X obj 171 392 pow 0;
#X obj 170 433 * 4000;
#X msg 371 213 set \$1;
#X obj 492 237 unpack f f;
#X obj 543 286 - 10;
#X msg 517 337 0 \, 1 10 \, 0 10 \$1;
#X obj 517 358 vline~;
#X obj 337 435 lop~ 10;
#X obj 394 362 tabread4~;
#X obj 423 335 vline~;
#X msg 427 306 0 \, \$1 \$2;
#X obj 441 427 *~;
#X obj 443 520 outlet~;
#X obj 539 524 outlet~;
#X obj 451 482 *~;
#X obj 538 484 *~;
#X obj 546 428 *~ -1;
#X obj 549 458 +~ 1;
#X connect 0 0 1 0;
#X connect 1 0 2 0;
#X connect 1 1 17 0;
#X connect 1 2 12 0;
#X connect 2 0 3 0;
#X connect 3 0 4 0;
#X connect 3 1 9 0;
#X connect 3 2 10 1;
#X connect 4 0 5 0;
#X connect 5 0 6 0;
#X connect 6 0 7 0;
#X connect 7 0 20 0;
#X connect 7 0 13 0;
#X connect 8 0 7 1;
#X connect 9 0 10 0;
#X connect 10 0 11 0;
#X connect 11 0 8 0;
#X connect 12 0 18 0;
#X connect 13 1 14 0;
#X connect 14 0 15 0;
#X connect 15 0 16 0;
#X connect 16 0 21 1;
#X connect 17 0 24 1;
#X connect 17 0 26 0;
#X connect 18 0 21 0;
#X connect 19 0 18 0;
#X connect 20 0 19 0;
#X connect 21 0 24 0;
#X connect 21 0 25 0;
#X connect 24 0 22 0;
#X connect 25 0 23 0;
#X connect 26 0 27 0;
#X connect 27 0 25 1;
