#N canvas 0 23 1680 997 10;
#X obj 247 131 tgl 15 1 empty empty empty 17 7 0 10 -262144 -1 -1 1
1;
#X obj 247 151 tgl 15 1 empty empty empty 17 7 0 10 -262144 -1 -1 0
1;
#X obj 247 174 tgl 15 1 empty empty empty 17 7 0 10 -262144 -1 -1 0
1;
#X obj 248 201 tgl 15 1 empty empty empty 17 7 0 10 -262144 -1 -1 0
1;
#X obj 249 229 bng 15 250 50 0 empty empty empty 17 7 0 10 -262144
-1 -1;
#X obj 38 443 spigot;
#X obj 34 509 spigot;
#X obj 32 315 spigot;
#X obj 1316 550 tgl 15 0 empty empty empty 17 7 0 10 -262144 -1 -1
1 1;
#X obj 1292 660 f;
#X obj 1343 660 + 1;
#X floatatom 1286 711 5 0 0 0 - - -;
#X obj 1428 527 t b f;
#X msg 1410 573 60000;
#X obj 1413 603 /;
#X obj 1501 524 * 3;
#X obj 171 172 bng 15 250 50 0 empty guitaron empty 17 7 0 10 -262144
-1 -1;
#X obj 34 388 spigot;
#X obj 272 131 tgl 15 1 empty empty empty 17 7 0 10 -262144 -1 -1 0
1;
#X obj 272 151 tgl 15 1 empty empty empty 17 7 0 10 -262144 -1 -1 0
1;
#X obj 272 174 tgl 15 1 empty empty empty 17 7 0 10 -262144 -1 -1 0
1;
#X obj 273 201 tgl 15 1 empty empty empty 17 7 0 10 -262144 -1 -1 0
1;
#X obj 274 229 bng 15 250 50 0 empty empty empty 17 7 0 10 -262144
-1 -1;
#X obj 115 443 spigot;
#X obj 111 509 spigot;
#X obj 109 315 spigot;
#X obj 111 388 spigot;
#X obj 298 131 tgl 15 1 empty empty empty 17 7 0 10 -262144 -1 -1 1
1;
#X obj 298 151 tgl 15 1 empty empty empty 17 7 0 10 -262144 -1 -1 0
1;
#X obj 298 174 tgl 15 1 empty empty empty 17 7 0 10 -262144 -1 -1 0
1;
#X obj 299 201 tgl 15 1 empty empty empty 17 7 0 10 -262144 -1 -1 0
1;
#X obj 300 229 bng 15 250 50 0 empty empty empty 17 7 0 10 -262144
-1 -1;
#X obj 188 444 spigot;
#X obj 184 510 spigot;
#X obj 182 316 spigot;
#X obj 184 389 spigot;
#X obj 323 132 tgl 15 1 empty empty empty 17 7 0 10 -262144 -1 -1 0
1;
#X obj 323 152 tgl 15 1 empty empty empty 17 7 0 10 -262144 -1 -1 0
1;
#X obj 323 175 tgl 15 1 empty empty empty 17 7 0 10 -262144 -1 -1 0
1;
#X obj 324 202 tgl 15 1 empty empty empty 17 7 0 10 -262144 -1 -1 0
1;
#X obj 325 230 bng 15 250 50 0 empty empty empty 17 7 0 10 -262144
-1 -1;
#X obj 256 443 spigot;
#X obj 252 509 spigot;
#X obj 250 315 spigot;
#X obj 252 388 spigot;
#X obj 347 132 tgl 15 1 empty empty empty 17 7 0 10 -262144 -1 -1 0
1;
#X obj 347 152 tgl 15 1 empty empty empty 17 7 0 10 -262144 -1 -1 1
1;
#X obj 347 175 tgl 15 1 empty empty empty 17 7 0 10 -262144 -1 -1 0
1;
#X obj 348 202 tgl 15 1 empty empty empty 17 7 0 10 -262144 -1 -1 0
1;
#X obj 349 230 bng 15 250 50 0 empty empty empty 17 7 0 10 -262144
-1 -1;
#X obj 329 443 spigot;
#X obj 325 509 spigot;
#X obj 323 315 spigot;
#X obj 325 388 spigot;
#X obj 372 132 tgl 15 1 empty empty empty 17 7 0 10 -262144 -1 -1 0
1;
#X obj 372 152 tgl 15 1 empty empty empty 17 7 0 10 -262144 -1 -1 0
1;
#X obj 372 175 tgl 15 1 empty empty empty 17 7 0 10 -262144 -1 -1 0
1;
#X obj 373 202 tgl 15 1 empty empty empty 17 7 0 10 -262144 -1 -1 0
1;
#X obj 374 230 bng 15 250 50 0 empty empty empty 17 7 0 10 -262144
-1 -1;
#X obj 394 444 spigot;
#X obj 390 510 spigot;
#X obj 388 316 spigot;
#X obj 390 389 spigot;
#X obj 397 132 tgl 15 1 empty empty empty 17 7 0 10 -262144 -1 -1 0
1;
#X obj 397 152 tgl 15 1 empty empty empty 17 7 0 10 -262144 -1 -1 1
1;
#X obj 397 175 tgl 15 1 empty empty empty 17 7 0 10 -262144 -1 -1 0
1;
#X obj 398 202 tgl 15 1 empty empty empty 17 7 0 10 -262144 -1 -1 0
1;
#X obj 399 230 bng 15 250 50 0 empty empty empty 17 7 0 10 -262144
-1 -1;
#X obj 457 446 spigot;
#X obj 459 510 spigot;
#X obj 457 316 spigot;
#X obj 459 389 spigot;
#X obj 423 132 tgl 15 1 empty empty empty 17 7 0 10 -262144 -1 -1 0
1;
#X obj 423 152 tgl 15 1 empty empty empty 17 7 0 10 -262144 -1 -1 0
1;
#X obj 423 175 tgl 15 1 empty empty empty 17 7 0 10 -262144 -1 -1 0
1;
#X obj 424 202 tgl 15 1 empty empty empty 17 7 0 10 -262144 -1 -1 0
1;
#X obj 425 230 bng 15 250 50 0 empty empty empty 17 7 0 10 -262144
-1 -1;
#X obj 529 444 spigot;
#X obj 525 510 spigot;
#X obj 523 316 spigot;
#X obj 525 389 spigot;
#X obj 449 132 tgl 15 1 empty empty empty 17 7 0 10 -262144 -1 -1 0
1;
#X obj 449 152 tgl 15 1 empty empty empty 17 7 0 10 -262144 -1 -1 0
1;
#X obj 449 175 tgl 15 1 empty empty empty 17 7 0 10 -262144 -1 -1 1
1;
#X obj 450 202 tgl 15 1 empty empty empty 17 7 0 10 -262144 -1 -1 0
1;
#X obj 451 230 bng 15 250 50 0 empty empty empty 17 7 0 10 -262144
-1 -1;
#X obj 598 444 spigot;
#X obj 594 510 spigot;
#X obj 592 316 spigot;
#X obj 594 389 spigot;
#X obj 474 132 tgl 15 1 empty empty empty 17 7 0 10 -262144 -1 -1 0
1;
#X obj 474 152 tgl 15 1 empty empty empty 17 7 0 10 -262144 -1 -1 0
1;
#X obj 474 175 tgl 15 1 empty empty empty 17 7 0 10 -262144 -1 -1 0
1;
#X obj 475 202 tgl 15 1 empty empty empty 17 7 0 10 -262144 -1 -1 0
1;
#X obj 476 230 bng 15 250 50 0 empty empty empty 17 7 0 10 -262144
-1 -1;
#X obj 664 444 spigot;
#X obj 660 510 spigot;
#X obj 658 316 spigot;
#X obj 660 389 spigot;
#X obj 500 132 tgl 15 1 empty empty empty 17 7 0 10 -262144 -1 -1 0
1;
#X obj 500 152 tgl 15 1 empty empty empty 17 7 0 10 -262144 -1 -1 0
1;
#X obj 500 175 tgl 15 1 empty empty empty 17 7 0 10 -262144 -1 -1 1
1;
#X obj 501 202 tgl 15 1 empty empty empty 17 7 0 10 -262144 -1 -1 0
1;
#X obj 502 230 bng 15 250 50 0 empty empty empty 17 7 0 10 -262144
-1 -1;
#X obj 729 443 spigot;
#X obj 725 509 spigot;
#X obj 723 315 spigot;
#X obj 725 388 spigot;
#X obj 524 132 tgl 15 1 empty empty empty 17 7 0 10 -262144 -1 -1 0
1;
#X obj 524 152 tgl 15 1 empty empty empty 17 7 0 10 -262144 -1 -1 0
1;
#X obj 524 175 tgl 15 1 empty empty empty 17 7 0 10 -262144 -1 -1 0
1;
#X obj 525 202 tgl 15 1 empty empty empty 17 7 0 10 -262144 -1 -1 0
1;
#X obj 526 230 bng 15 250 50 0 empty empty empty 17 7 0 10 -262144
-1 -1;
#X obj 792 444 spigot;
#X obj 788 510 spigot;
#X obj 786 316 spigot;
#X obj 788 389 spigot;
#X obj 171 192 bng 15 250 50 0 empty reset empty 17 7 0 10 -262144
-1 -1;
#X obj 1092 108 bng 15 250 50 0 empty empty empty 17 7 0 10 -262144
-1 -1;
#X obj 1149 107 bng 15 250 50 0 empty empty empty 17 7 0 10 -262144
-1 -1;
#X obj 1210 104 bng 15 250 50 0 empty empty empty 17 7 0 10 -262144
-1 -1;
#X obj 1275 110 bng 15 250 50 0 empty empty empty 17 7 0 10 -262144
-1 -1;
#X obj 1089 148 t b b;
#X obj 1141 140 t b b;
#X obj 1201 142 t b b;
#X obj 1267 141 t b b;
#X obj 1096 212 f 0;
#X obj 1141 215 + 1;
#X obj 1101 244 % 48;
#X floatatom 1095 273 5 0 0 0 - - -;
#X obj 1179 261 f;
#X obj 1217 260 f;
#X obj 1261 260 f;
#X obj 1302 260 f;
#X obj 1131 303 pack f f f;
#X obj 1207 303 pack f f f;
#X obj 1277 302 pack f f f;
#X obj 1345 303 pack f f f;
#X floatatom 845 154 5 0 0 0 - - -;
#X obj 1227 446 clone drumvox~ 48;
#X obj 168 664 openpanel;
#X obj 161 733 soundfiler;
#X obj 224 131 bng 15 250 50 0 empty empty empty 17 7 0 10 -262144
-1 -1;
#X obj 341 661 openpanel;
#X obj 334 730 soundfiler;
#X obj 223 153 bng 15 250 50 0 empty empty empty 17 7 0 10 -262144
-1 -1;
#X obj 515 664 openpanel;
#X obj 508 733 soundfiler;
#X obj 223 175 bng 15 250 50 0 empty empty empty 17 7 0 10 -262144
-1 -1;
#X obj 692 663 openpanel;
#X obj 685 732 soundfiler;
#X obj 224 201 bng 15 250 50 0 empty empty empty 17 7 0 10 -262144
-1 -1;
#X obj 550 132 tgl 15 1 empty empty empty 17 7 0 10 -262144 -1 -1 0
1;
#X obj 550 152 tgl 15 1 empty empty empty 17 7 0 10 -262144 -1 -1 0
1;
#X obj 550 175 tgl 15 1 empty empty empty 17 7 0 10 -262144 -1 -1 0
1;
#X obj 551 202 tgl 15 1 empty empty empty 17 7 0 10 -262144 -1 -1 1
1;
#X obj 552 230 bng 15 250 50 0 empty empty empty 17 7 0 10 -262144
-1 -1;
#X obj 846 445 spigot;
#X obj 842 511 spigot;
#X obj 840 317 spigot;
#X obj 842 390 spigot;
#X obj 576 132 tgl 15 1 empty empty empty 17 7 0 10 -262144 -1 -1 0
1;
#X obj 576 152 tgl 15 1 empty empty empty 17 7 0 10 -262144 -1 -1 0
1;
#X obj 576 175 tgl 15 1 empty empty empty 17 7 0 10 -262144 -1 -1 0
1;
#X obj 577 202 tgl 15 1 empty empty empty 17 7 0 10 -262144 -1 -1 0
1;
#X obj 578 230 bng 15 250 50 0 empty empty empty 17 7 0 10 -262144
-1 -1;
#X obj 911 447 spigot;
#X obj 907 513 spigot;
#X obj 905 319 spigot;
#X obj 907 392 spigot;
#X obj 599 132 tgl 15 1 empty empty empty 17 7 0 10 -262144 -1 -1 0
1;
#X obj 599 152 tgl 15 1 empty empty empty 17 7 0 10 -262144 -1 -1 0
1;
#X obj 599 175 tgl 15 1 empty empty empty 17 7 0 10 -262144 -1 -1 0
1;
#X obj 600 202 tgl 15 1 empty empty empty 17 7 0 10 -262144 -1 -1 1
1;
#X obj 601 230 bng 15 250 50 0 empty empty empty 17 7 0 10 -262144
-1 -1;
#X obj 971 445 spigot;
#X obj 967 511 spigot;
#X obj 965 317 spigot;
#X obj 967 390 spigot;
#X obj 624 132 tgl 15 1 empty empty empty 17 7 0 10 -262144 -1 -1 0
1;
#X obj 624 152 tgl 15 1 empty empty empty 17 7 0 10 -262144 -1 -1 0
1;
#X obj 624 175 tgl 15 1 empty empty empty 17 7 0 10 -262144 -1 -1 0
1;
#X obj 625 202 tgl 15 1 empty empty empty 17 7 0 10 -262144 -1 -1 0
1;
#X obj 626 230 bng 15 250 50 0 empty empty empty 17 7 0 10 -262144
-1 -1;
#X obj 1030 443 spigot;
#X obj 1026 509 spigot;
#X obj 1024 315 spigot;
#X obj 1026 388 spigot;
#X obj 1447 712 sel 0 1 2 3 4 5 6 7 8 9 10 11 12 13 14 15;
#X obj 1287 745 % 16;
#X msg 1526 646 15;
#X obj 76 643 inlet;
#X text 39 643 bpm;
#X obj 1164 509 delay 0.001;
#X obj 142 75 soundfiler;
#X obj 344 71 soundfiler;
#X obj 541 73 soundfiler;
#X obj 737 75 soundfiler;
#X obj 1149 630 *~ 0.5;
#X obj 1057 709 outlet~;
#X obj 122 221 output~;
#X msg 115 50 read -resize sample1.wav sample1;
#X msg 524 52 read -resize sample3.wav sample3;
#X msg 319 52 read -resize sample2.wav sample2;
#X msg 738 52 read -resize sample4.wav sample4;
#X msg 166 700 read -resize \$1 sample1;
#X msg 339 697 read -resize \$1 sample2;
#X msg 513 700 read -resize \$1 sample3;
#X msg 690 699 read -resize \$1 sample4;
#X obj 246 659 table sample1;
#X obj 413 654 table sample2;
#X obj 602 650 table sample3;
#X obj 786 658 table sample4;
#X obj 31 352 s s1;
#X obj 34 418 s s2;
#X obj 33 482 s s3;
#X obj 29 548 s s4;
#X obj 108 352 s s1;
#X obj 111 418 s s2;
#X obj 110 482 s s3;
#X obj 106 548 s s4;
#X obj 181 353 s s1;
#X obj 184 419 s s2;
#X obj 183 482 s s3;
#X obj 179 549 s s4;
#X obj 249 352 s s1;
#X obj 252 418 s s2;
#X obj 251 482 s s3;
#X obj 247 548 s s4;
#X obj 323 352 s s1;
#X obj 325 418 s s2;
#X obj 324 482 s s3;
#X obj 320 548 s s4;
#X obj 387 353 s s1;
#X obj 390 419 s s2;
#X obj 389 483 s s3;
#X obj 385 549 s s4;
#X obj 456 353 s s1;
#X obj 459 419 s s2;
#X obj 458 483 s s3;
#X obj 454 549 s s4;
#X obj 522 353 s s1;
#X obj 525 419 s s2;
#X obj 524 483 s s3;
#X obj 520 549 s s4;
#X obj 591 353 s s1;
#X obj 594 419 s s2;
#X obj 593 483 s s3;
#X obj 589 549 s s4;
#X obj 657 353 s s1;
#X obj 660 419 s s2;
#X obj 659 483 s s3;
#X obj 655 549 s s4;
#X obj 722 352 s s1;
#X obj 725 418 s s2;
#X obj 724 482 s s3;
#X obj 720 548 s s4;
#X obj 785 353 s s1;
#X obj 788 419 s s2;
#X obj 787 483 s s3;
#X obj 783 549 s s4;
#X obj 839 354 s s1;
#X obj 842 420 s s2;
#X obj 841 484 s s3;
#X obj 837 550 s s4;
#X obj 904 356 s s1;
#X obj 907 422 s s2;
#X obj 906 486 s s3;
#X obj 902 552 s s4;
#X obj 964 354 s s1;
#X obj 967 420 s s2;
#X obj 966 484 s s3;
#X obj 962 550 s s4;
#X obj 1023 352 s s1;
#X obj 1026 418 s s2;
#X obj 1025 482 s s3;
#X obj 1024 552 s s4;
#X msg 1117 363 \$1 \$2 \$3 sample1;
#X msg 1220 362 \$1 \$2 \$3 sample2;
#X msg 1341 360 \$1 \$2 \$3 sample3;
#X msg 1153 395 \$1 \$2 \$3 sample4;
#X obj 170 151 bng 15 250 50 0 empty empty empty 17 7 0 10 -262144
-1 -1;
#X obj 1085 57 r s1;
#X obj 1146 61 r s2;
#X obj 1207 62 r s3;
#X obj 1263 56 r s4;
#X obj 712 126 inlet;
#X text 752 125 start;
#X text 127 170 on/off;
#X text 130 192 reset;
#X floatatom 153 129 5 0 0 0 - - -;
#X obj 1308 590 metro 250;
#X text 201 110 openpanel;
#X text 101 150 load sample;
#X text 122 129 BPM;
#X obj 81 740 /;
#X floatatom 81 761 5 0 0 0 - - -;
#X msg 72 701 60000;
#X obj 76 664 t b f;
#X obj 37 101 loadbang;
#X connect 0 0 7 1;
#X connect 1 0 17 1;
#X connect 2 0 5 1;
#X connect 3 0 6 1;
#X connect 4 0 7 0;
#X connect 4 0 17 0;
#X connect 4 0 5 0;
#X connect 4 0 6 0;
#X connect 5 0 215 0;
#X connect 6 0 216 0;
#X connect 7 0 213 0;
#X connect 8 0 291 0;
#X connect 9 0 10 0;
#X connect 9 0 11 0;
#X connect 10 0 9 1;
#X connect 11 0 189 0;
#X connect 12 0 13 0;
#X connect 12 1 14 1;
#X connect 13 0 14 0;
#X connect 14 0 291 1;
#X connect 15 0 12 0;
#X connect 16 0 193 0;
#X connect 17 0 214 0;
#X connect 18 0 25 1;
#X connect 19 0 26 1;
#X connect 20 0 23 1;
#X connect 21 0 24 1;
#X connect 22 0 25 0;
#X connect 22 0 26 0;
#X connect 22 0 23 0;
#X connect 22 0 24 0;
#X connect 23 0 219 0;
#X connect 24 0 220 0;
#X connect 25 0 217 0;
#X connect 26 0 218 0;
#X connect 27 0 34 1;
#X connect 28 0 35 1;
#X connect 29 0 32 1;
#X connect 30 0 33 1;
#X connect 31 0 34 0;
#X connect 31 0 35 0;
#X connect 31 0 32 0;
#X connect 31 0 33 0;
#X connect 32 0 223 0;
#X connect 33 0 224 0;
#X connect 34 0 221 0;
#X connect 35 0 222 0;
#X connect 36 0 43 1;
#X connect 37 0 44 1;
#X connect 38 0 41 1;
#X connect 39 0 42 1;
#X connect 40 0 43 0;
#X connect 40 0 44 0;
#X connect 40 0 41 0;
#X connect 40 0 42 0;
#X connect 41 0 227 0;
#X connect 42 0 228 0;
#X connect 43 0 225 0;
#X connect 44 0 226 0;
#X connect 45 0 52 1;
#X connect 46 0 53 1;
#X connect 47 0 50 1;
#X connect 48 0 51 1;
#X connect 49 0 52 0;
#X connect 49 0 53 0;
#X connect 49 0 50 0;
#X connect 49 0 51 0;
#X connect 50 0 231 0;
#X connect 51 0 232 0;
#X connect 52 0 229 0;
#X connect 53 0 230 0;
#X connect 54 0 61 1;
#X connect 55 0 62 1;
#X connect 56 0 59 1;
#X connect 57 0 60 1;
#X connect 58 0 61 0;
#X connect 58 0 62 0;
#X connect 58 0 59 0;
#X connect 58 0 60 0;
#X connect 59 0 235 0;
#X connect 60 0 236 0;
#X connect 61 0 233 0;
#X connect 62 0 234 0;
#X connect 63 0 70 1;
#X connect 64 0 71 1;
#X connect 65 0 68 1;
#X connect 66 0 69 1;
#X connect 67 0 70 0;
#X connect 67 0 71 0;
#X connect 67 0 68 0;
#X connect 67 0 69 0;
#X connect 68 0 239 0;
#X connect 69 0 240 0;
#X connect 70 0 237 0;
#X connect 71 0 238 0;
#X connect 72 0 79 1;
#X connect 73 0 80 1;
#X connect 74 0 77 1;
#X connect 75 0 78 1;
#X connect 76 0 79 0;
#X connect 76 0 80 0;
#X connect 76 0 77 0;
#X connect 76 0 78 0;
#X connect 77 0 243 0;
#X connect 78 0 244 0;
#X connect 79 0 241 0;
#X connect 80 0 242 0;
#X connect 81 0 88 1;
#X connect 82 0 89 1;
#X connect 83 0 86 1;
#X connect 84 0 87 1;
#X connect 85 0 88 0;
#X connect 85 0 89 0;
#X connect 85 0 86 0;
#X connect 85 0 87 0;
#X connect 86 0 247 0;
#X connect 87 0 248 0;
#X connect 88 0 245 0;
#X connect 89 0 246 0;
#X connect 90 0 97 1;
#X connect 91 0 98 1;
#X connect 92 0 95 1;
#X connect 93 0 96 1;
#X connect 94 0 97 0;
#X connect 94 0 98 0;
#X connect 94 0 95 0;
#X connect 94 0 96 0;
#X connect 95 0 251 0;
#X connect 96 0 252 0;
#X connect 97 0 249 0;
#X connect 98 0 250 0;
#X connect 99 0 106 1;
#X connect 100 0 107 1;
#X connect 101 0 104 1;
#X connect 102 0 105 1;
#X connect 103 0 106 0;
#X connect 103 0 107 0;
#X connect 103 0 104 0;
#X connect 103 0 105 0;
#X connect 104 0 255 0;
#X connect 105 0 256 0;
#X connect 106 0 253 0;
#X connect 107 0 254 0;
#X connect 108 0 115 1;
#X connect 109 0 116 1;
#X connect 110 0 113 1;
#X connect 111 0 114 1;
#X connect 112 0 115 0;
#X connect 112 0 116 0;
#X connect 112 0 113 0;
#X connect 112 0 114 0;
#X connect 113 0 259 0;
#X connect 114 0 260 0;
#X connect 115 0 257 0;
#X connect 116 0 258 0;
#X connect 117 0 190 0;
#X connect 118 0 122 0;
#X connect 119 0 123 0;
#X connect 120 0 124 0;
#X connect 121 0 125 0;
#X connect 122 0 126 0;
#X connect 122 1 130 0;
#X connect 123 0 126 0;
#X connect 123 1 131 0;
#X connect 124 0 126 0;
#X connect 124 1 132 0;
#X connect 125 0 126 0;
#X connect 125 1 133 0;
#X connect 126 0 127 0;
#X connect 126 0 128 0;
#X connect 127 0 126 1;
#X connect 128 0 129 0;
#X connect 129 0 130 1;
#X connect 129 0 133 1;
#X connect 129 0 132 1;
#X connect 129 0 131 1;
#X connect 130 0 134 0;
#X connect 131 0 135 0;
#X connect 132 0 136 0;
#X connect 133 0 137 0;
#X connect 134 0 277 0;
#X connect 135 0 278 0;
#X connect 136 0 279 0;
#X connect 137 0 280 0;
#X connect 138 0 137 2;
#X connect 138 0 136 2;
#X connect 138 0 135 2;
#X connect 138 0 134 2;
#X connect 139 0 198 0;
#X connect 139 1 198 0;
#X connect 140 0 205 0;
#X connect 142 0 140 0;
#X connect 143 0 206 0;
#X connect 145 0 143 0;
#X connect 146 0 207 0;
#X connect 148 0 146 0;
#X connect 149 0 208 0;
#X connect 151 0 149 0;
#X connect 152 0 159 1;
#X connect 153 0 160 1;
#X connect 154 0 157 1;
#X connect 155 0 158 1;
#X connect 156 0 159 0;
#X connect 156 0 160 0;
#X connect 156 0 157 0;
#X connect 156 0 158 0;
#X connect 157 0 263 0;
#X connect 158 0 264 0;
#X connect 159 0 261 0;
#X connect 160 0 262 0;
#X connect 161 0 168 1;
#X connect 162 0 169 1;
#X connect 163 0 166 1;
#X connect 164 0 167 1;
#X connect 165 0 168 0;
#X connect 165 0 169 0;
#X connect 165 0 166 0;
#X connect 165 0 167 0;
#X connect 166 0 267 0;
#X connect 167 0 268 0;
#X connect 168 0 265 0;
#X connect 169 0 266 0;
#X connect 170 0 177 1;
#X connect 171 0 178 1;
#X connect 172 0 175 1;
#X connect 173 0 176 1;
#X connect 174 0 177 0;
#X connect 174 0 178 0;
#X connect 174 0 175 0;
#X connect 174 0 176 0;
#X connect 175 0 271 0;
#X connect 176 0 272 0;
#X connect 177 0 269 0;
#X connect 178 0 270 0;
#X connect 179 0 186 1;
#X connect 180 0 187 1;
#X connect 181 0 184 1;
#X connect 182 0 185 1;
#X connect 183 0 186 0;
#X connect 183 0 187 0;
#X connect 183 0 184 0;
#X connect 183 0 185 0;
#X connect 184 0 275 0;
#X connect 185 0 276 0;
#X connect 186 0 273 0;
#X connect 187 0 274 0;
#X connect 188 0 4 0;
#X connect 188 1 22 0;
#X connect 188 2 31 0;
#X connect 188 3 40 0;
#X connect 188 4 49 0;
#X connect 188 5 58 0;
#X connect 188 6 67 0;
#X connect 188 7 76 0;
#X connect 188 8 85 0;
#X connect 188 9 94 0;
#X connect 188 10 103 0;
#X connect 188 11 112 0;
#X connect 188 12 156 0;
#X connect 188 13 165 0;
#X connect 188 14 174 0;
#X connect 188 15 183 0;
#X connect 189 0 188 0;
#X connect 190 0 9 0;
#X connect 191 0 290 0;
#X connect 191 0 298 0;
#X connect 193 0 8 0;
#X connect 198 0 199 0;
#X connect 198 0 200 0;
#X connect 198 0 200 1;
#X connect 201 0 194 0;
#X connect 202 0 196 0;
#X connect 203 0 195 0;
#X connect 204 0 197 0;
#X connect 205 0 141 0;
#X connect 206 0 144 0;
#X connect 207 0 147 0;
#X connect 208 0 150 0;
#X connect 277 0 139 0;
#X connect 278 0 139 0;
#X connect 279 0 139 0;
#X connect 280 0 139 0;
#X connect 281 0 201 0;
#X connect 281 0 204 0;
#X connect 281 0 203 0;
#X connect 281 0 202 0;
#X connect 282 0 118 0;
#X connect 283 0 119 0;
#X connect 284 0 120 0;
#X connect 285 0 121 0;
#X connect 286 0 16 0;
#X connect 291 0 9 0;
#X connect 295 0 296 0;
#X connect 296 0 291 1;
#X connect 297 0 295 0;
#X connect 298 0 297 0;
#X connect 298 1 295 1;
#X connect 299 0 281 0;
#X coords 0 -1 1 1 550 180 2 100 100;
