#N canvas 228 88 607 476 10;
#X obj 61 75 notein;
#X floatatom 41 129 5 0 0 0 - - -;
#X floatatom 86 129 5 0 0 0 - - -;
#X obj 61 178 poly 8 1;
#X obj 51 238 pack f f f;
#X obj 51 259 outlet;
#X obj 167 184 pack 1 f f;
#X obj 156 227 outlet;
#X obj 303 235 unpack f f f;
#X floatatom 268 289 5 0 0 0 - - -;
#X floatatom 320 292 5 0 0 0 - - -;
#X floatatom 372 293 5 0 0 0 - - -;
#X obj 174 132 t b f;
#X connect 0 0 1 0;
#X connect 0 1 2 0;
#X connect 1 0 3 0;
#X connect 1 0 12 0;
#X connect 2 0 3 1;
#X connect 2 0 6 2;
#X connect 3 0 4 0;
#X connect 3 1 4 1;
#X connect 3 2 4 2;
#X connect 4 0 5 0;
#X connect 6 0 7 0;
#X connect 6 0 8 0;
#X connect 8 0 9 0;
#X connect 8 1 10 0;
#X connect 8 2 11 0;
#X connect 12 0 6 0;
#X connect 12 1 6 1;
