#N canvas 0 23 1371 1005 10;
#X obj 100 100 bng 100 250 50 0 empty empty play 17 25 0 30 -4034 -261234
-1;
#X obj 384 651 s final4;
#X obj 62 724 s play;
#X obj 18 380 s final1;
#X obj 92 469 s final2;
#X obj 227 548 s final3;
#X obj 293 171 delay 12500;
#X obj 617 418 delay 43000;
#X obj 147 237 t b b b;
#X obj 616 145 s bpm;
#X msg 612 113 120;
#X obj 293 192 t b b;
#X obj 394 206 s guitaron;
#X obj 333 230 delay 8000;
#X obj 333 251 t b b;
#X obj 398 267 s drumon;
#X obj 321 278 delay 8000;
#X obj 321 299 t b b;
#X obj 403 314 delay 81000;
#X obj 457 361 t b b b;
#X msg 540 372 90;
#X obj 618 439 t b b b;
#X msg 488 430 1.5;
#X obj 488 451 s index;
#X msg 543 430 1.5;
#X obj 543 451 s ratio;
#X obj 631 562 s index;
#X msg 631 540 8;
#X obj 424 421 s pdelay;
#X obj 663 525 s fdelay;
#X obj 513 588 delay 40000;
#X obj 572 635 s drumon;
#X msg 175 281 0;
#X obj 155 317 s index;
#X obj 223 318 s ratio;
#X obj 193 360 s dtime;
#X obj 221 266 s dfb;
#X obj 751 539 s guitaron;
#X msg 691 469 180;
#X connect 0 0 8 0;
#X connect 6 0 11 0;
#X connect 7 0 21 0;
#X connect 8 0 2 0;
#X connect 8 0 6 0;
#X connect 8 1 1 0;
#X connect 8 2 10 0;
#X connect 8 2 32 0;
#X connect 8 2 36 0;
#X connect 10 0 9 0;
#X connect 11 0 13 0;
#X connect 11 1 12 0;
#X connect 13 0 14 0;
#X connect 14 0 16 0;
#X connect 14 1 15 0;
#X connect 16 0 17 0;
#X connect 17 0 2 0;
#X connect 17 0 18 0;
#X connect 17 1 3 0;
#X connect 18 0 19 0;
#X connect 19 0 2 0;
#X connect 19 0 7 0;
#X connect 19 1 4 0;
#X connect 19 1 28 0;
#X connect 19 2 20 0;
#X connect 19 2 22 0;
#X connect 19 2 24 0;
#X connect 20 0 9 0;
#X connect 21 0 2 0;
#X connect 21 0 30 0;
#X connect 21 1 5 0;
#X connect 21 1 29 0;
#X connect 21 2 38 0;
#X connect 21 2 27 0;
#X connect 21 2 29 0;
#X connect 21 2 37 0;
#X connect 22 0 23 0;
#X connect 24 0 25 0;
#X connect 27 0 26 0;
#X connect 30 0 31 0;
#X connect 32 0 33 0;
#X connect 32 0 34 0;
#X connect 32 0 35 0;
#X connect 38 0 9 0;
#X coords 0 -1 1 1 100 100 1 100 100;
