#N canvas 0 31 1680 997 10;
#X obj 675 223 lop~ 1800;
#X obj 673 251 lop~ 1800;
#X floatatom 740 176 5 0 0 0 - - -;
#X obj 111 132 tgl 15 0 empty empty empty 17 7 0 10 -262144 -1 -1 0
1;
#X obj 905 213 metro 2000;
#X obj 905 234 t b b;
#X obj 902 284 pack 360 2000;
#X floatatom 1005 182 5 0 0 0 - - -;
#X msg 939 320 0 0;
#X obj 907 361 line;
#X floatatom 907 382 5 0 0 0 - - -;
#X obj 907 402 / 360;
#X obj 907 423 * 6.28;
#X obj 907 444 sin;
#X floatatom 907 465 5 0 0 0 - - -;
#X obj 1027 390 loadbang;
#X obj 1027 411 f 1;
#X obj 1027 432 atan;
#X obj 1027 453 * 8;
#X obj 1026 487 cos;
#X floatatom 1088 514 5 0 0 0 - - -;
#X obj 111 204 hsl 128 15 -1 1 0 1 empty empty empty -2 -8 0 10 -262144
-1 -1 12700 1;
#X obj 1097 570 vsl 15 128 0 127 0 0 empty empty empty 0 -9 0 10 -262144
-1 -1 0 1;
#X obj 410 75 * -0.5;
#X obj 410 96 + 0.5;
#X floatatom 410 117 5 0 0 0 - - -;
#X obj 510 94 + 0.5;
#X floatatom 510 115 5 0 0 0 - - -;
#X obj 510 73 * 0.5;
#X obj 371 285 *~;
#X obj 415 283 *~;
#X obj 478 279 *~;
#X obj 537 281 *~;
#X obj 391 321 +~;
#X obj 506 325 +~;
#X obj 384 412 * 1;
#X obj 539 415 * 1;
#X floatatom 648 387 5 0 0 0 - - -;
#X obj 384 433 + 3;
#X floatatom 384 454 5 0 0 0 - - -;
#X obj 384 474 pack f 20;
#X obj 384 495 vline~;
#X obj 107 256 output~;
#X obj 536 448 + 3;
#X floatatom 536 469 5 0 0 0 - - -;
#X obj 536 489 pack f 20;
#X obj 536 510 vline~;
#X obj 911 68 inlet~;
#X text 111 184 change position;
#X text 109 113 moving around;
#X obj 358 359 delwrite~ leftright 100;
#X obj 507 346 delwrite~ rightright 100;
#X obj 386 527 delread4~ leftright;
#X obj 538 542 delread4~ rightright;
#X obj 911 89 throw~ \$0-right;
#X obj 696 122 catch~ \$0-right;
#X obj 110 170 hsl 128 15 -1 1 0 1 empty empty empty -2 -8 0 10 -262144
-1 -1 12700 1;
#X text 110 150 moving indicator;
#X connect 0 0 1 0;
#X connect 1 0 30 0;
#X connect 1 0 31 0;
#X connect 2 0 0 1;
#X connect 2 0 1 1;
#X connect 3 0 4 0;
#X connect 4 0 5 0;
#X connect 5 0 6 0;
#X connect 5 1 8 0;
#X connect 6 0 9 0;
#X connect 7 0 4 1;
#X connect 7 0 6 1;
#X connect 8 0 9 0;
#X connect 9 0 10 0;
#X connect 10 0 11 0;
#X connect 11 0 12 0;
#X connect 12 0 13 0;
#X connect 12 0 19 0;
#X connect 13 0 14 0;
#X connect 14 0 23 0;
#X connect 14 0 28 0;
#X connect 14 0 56 0;
#X connect 15 0 16 0;
#X connect 16 0 17 0;
#X connect 17 0 18 0;
#X connect 18 0 12 1;
#X connect 19 0 20 0;
#X connect 20 0 22 0;
#X connect 21 0 14 0;
#X connect 23 0 24 0;
#X connect 24 0 25 0;
#X connect 25 0 29 1;
#X connect 25 0 31 1;
#X connect 25 0 35 0;
#X connect 26 0 27 0;
#X connect 27 0 30 1;
#X connect 27 0 32 1;
#X connect 27 0 36 0;
#X connect 28 0 26 0;
#X connect 29 0 33 0;
#X connect 30 0 33 1;
#X connect 31 0 34 0;
#X connect 32 0 34 1;
#X connect 33 0 50 0;
#X connect 34 0 51 0;
#X connect 35 0 38 0;
#X connect 36 0 43 0;
#X connect 37 0 36 1;
#X connect 37 0 35 1;
#X connect 38 0 39 0;
#X connect 39 0 40 0;
#X connect 40 0 41 0;
#X connect 41 0 52 0;
#X connect 43 0 44 0;
#X connect 44 0 45 0;
#X connect 45 0 46 0;
#X connect 46 0 53 0;
#X connect 47 0 54 0;
#X connect 52 0 42 0;
#X connect 53 0 42 1;
#X connect 55 0 0 0;
#X connect 55 0 29 0;
#X connect 55 0 32 0;
#X coords 0 -1 1 1 200 200 1 100 100;
