#N canvas 0 23 1438 896 10;
#X floatatom 623 137 10 0 0 0 - - -;
#X obj 629 167 t b f;
#X msg 628 199 1000;
#X obj 626 225 /;
#X floatatom 626 244 5 0 0 0 - - -;
#X obj 628 270 osc~;
#X obj 628 307 clip~ -1 1;
#X obj 599 351 *~ 0.5;
#X obj 599 370 +~ 0.5;
#X obj 872 153 lop~ 1800;
#X obj 872 171 lop~ 1800;
#X obj 978 152 hip~ 1800;
#X obj 978 171 hip~ 1800;
#X obj 677 353 *~ 0.5;
#X obj 677 372 +~ 0.5;
#X obj 872 211 *~;
#X obj 973 210 *~;
#X obj 118 207 output~;
#X floatatom 681 241 5 0 0 0 - - -;
#X obj 121 162 hsl 128 15 0 20 0 0 empty empty empty -2 -8 0 10 -262144
-1 -1 7500 1;
#X obj 623 104 * 10;
#X obj 628 288 *~ 1;
#X obj 908 106 inlet~;
#X obj 951 316 outlet~;
#X connect 0 0 1 0;
#X connect 1 0 2 0;
#X connect 1 1 3 1;
#X connect 2 0 3 0;
#X connect 3 0 4 0;
#X connect 4 0 5 0;
#X connect 5 0 21 0;
#X connect 6 0 7 0;
#X connect 6 0 13 0;
#X connect 7 0 8 0;
#X connect 8 0 15 1;
#X connect 9 0 10 0;
#X connect 10 0 15 0;
#X connect 11 0 12 0;
#X connect 12 0 16 0;
#X connect 13 0 14 0;
#X connect 14 0 16 1;
#X connect 15 0 17 0;
#X connect 15 0 17 1;
#X connect 15 0 23 0;
#X connect 16 0 17 0;
#X connect 16 0 17 1;
#X connect 16 0 23 0;
#X connect 18 0 21 1;
#X connect 19 0 20 0;
#X connect 20 0 0 0;
#X connect 21 0 6 0;
#X connect 22 0 9 0;
#X connect 22 0 11 0;
#X coords 0 -1 1 1 200 150 2 100 100;
