#N canvas 0 23 1440 778 10;
#X obj 464 226 osc~;
#X obj 461 266 *~ 128;
#X obj 461 287 +~ 129;
#X obj 461 329 hip~ 5;
#X obj 457 187 mtof;
#X obj 485 140 unpack f f;
#X obj 482 99 inlet;
#X obj 606 263 / 64;
#X obj 462 308 tabread4~ ws;
#X obj 584 450 *~;
#X obj 670 348 vline~;
#N canvas 560 155 720 544 fmInstrument 0;
#X obj 166 215 osc~;
#X obj 167 260 *~;
#X text 105 215 modulator;
#X floatatom 334 183 5 0 0 0 - - -;
#X text 48 179 modulatorfrequency;
#X text 345 221 index of mod;
#X obj 267 368 osc~;
#X text 215 370 carrier;
#X obj 319 248 *~;
#X text 147 322 carrier freq.;
#X floatatom 166 179 5 0 0 0 - - -;
#X obj 230 322 +~ 110;
#X obj 310 424 outlet~;
#X obj 333 118 inlet;
#X obj 160 56 inlet;
#X obj 248 56 inlet;
#N canvas 668 23 772 786 myExpEnv 0;
#X obj 76 26 inlet;
#X obj 76 189 line~;
#X msg 129 121 0;
#X msg 76 119 -1 1000;
#X obj 75 252 exp~;
#X floatatom 158 183 5 0 0 0 - - -;
#X text 113 26 tau;
#X obj 76 67 trigger b b f;
#X obj 75 294 outlet~;
#X obj 76 223 /~ 0.3;
#X connect 0 0 7 0;
#X connect 1 0 9 0;
#X connect 2 0 1 0;
#X connect 3 0 1 0;
#X connect 4 0 8 0;
#X connect 5 0 9 1;
#X connect 7 0 3 0;
#X connect 7 1 2 0;
#X connect 7 2 5 0;
#X connect 9 0 4 0;
#X restore 537 217 pd myExpEnv;
#X obj 319 220 *~;
#X obj 532 181 inlet;
#N canvas 839 175 601 510 adsr 0;
#X obj 240 74 inlet;
#X obj 240 113 unpack 1 1 1 1 1;
#X floatatom 229 163 5 0 0 0 - - -;
#X floatatom 271 162 5 0 0 0 - - -;
#X floatatom 347 163 5 0 0 0 - - -;
#X floatatom 421 162 5 0 0 0 - - -;
#X floatatom 507 164 5 0 0 0 - - -;
#X obj 230 443 outlet~;
#X obj 229 403 line~;
#X obj 229 256 delay;
#X obj 229 195 t b f;
#X msg 181 257 1 \$1;
#X obj 256 325 f;
#X obj 332 196 +;
#X obj 305 296 delay;
#X obj 305 325 f;
#X msg 305 354 0 \$1;
#X obj 229 364 pack f f;
#X obj 229 324 f;
#X obj 229 292 t b b;
#X connect 0 0 1 0;
#X connect 1 0 2 0;
#X connect 1 1 3 0;
#X connect 1 2 4 0;
#X connect 1 3 5 0;
#X connect 1 4 6 0;
#X connect 2 0 10 0;
#X connect 3 0 12 1;
#X connect 3 0 13 0;
#X connect 4 0 13 1;
#X connect 5 0 15 1;
#X connect 6 0 18 1;
#X connect 8 0 7 0;
#X connect 9 0 14 0;
#X connect 9 0 19 0;
#X connect 10 0 9 0;
#X connect 10 1 11 0;
#X connect 10 1 9 1;
#X connect 11 0 8 0;
#X connect 12 0 17 1;
#X connect 13 0 14 1;
#X connect 14 0 15 0;
#X connect 15 0 16 0;
#X connect 16 0 8 0;
#X connect 17 0 8 0;
#X connect 18 0 17 0;
#X connect 19 0 18 0;
#X connect 19 1 12 0;
#X restore 646 371 pd adsr;
#X obj 647 288 inlet;
#X obj 281 400 *~;
#X connect 0 0 1 0;
#X connect 1 0 11 0;
#X connect 3 0 17 1;
#X connect 6 0 21 0;
#X connect 8 0 1 1;
#X connect 10 0 0 0;
#X connect 10 0 17 0;
#X connect 11 0 6 0;
#X connect 13 0 3 0;
#X connect 14 0 10 0;
#X connect 15 0 11 1;
#X connect 16 0 8 1;
#X connect 17 0 8 0;
#X connect 18 0 16 0;
#X connect 19 0 8 1;
#X connect 19 0 21 1;
#X connect 20 0 19 0;
#X connect 21 0 12 0;
#X restore 792 340 pd fmInstrument;
#X msg 859 306 1;
#X obj 799 400 *~;
#X obj 950 231 / 127;
#X msg 1091 275 200 2000 10000 200;
#X obj 912 317 pack f 300;
#X obj 912 373 vline~;
#X obj 741 307 * 1.5;
#X obj 865 109 inlet;
#X obj 638 304 pack f 300;
#X obj 584 508 throw~ mod;
#X obj 801 434 throw~ mod;
#X obj 1055 115 inlet;
#X connect 0 0 1 0;
#X connect 1 0 2 0;
#X connect 2 0 8 0;
#X connect 3 0 9 0;
#X connect 4 0 0 0;
#X connect 4 0 18 0;
#X connect 4 0 11 1;
#X connect 4 0 12 0;
#X connect 4 0 15 0;
#X connect 5 0 4 0;
#X connect 5 1 7 0;
#X connect 5 1 14 0;
#X connect 6 0 5 0;
#X connect 7 0 20 0;
#X connect 8 0 3 0;
#X connect 9 0 21 0;
#X connect 10 0 9 1;
#X connect 11 0 13 0;
#X connect 12 0 11 3;
#X connect 13 0 22 0;
#X connect 14 0 16 0;
#X connect 15 0 11 4;
#X connect 16 0 17 0;
#X connect 17 0 13 1;
#X connect 18 0 11 0;
#X connect 19 0 11 2;
#X connect 20 0 10 0;
#X connect 23 0 18 1;
